<svg xmlns="http://www.w3.org/2000/svg" width="256" height="256"><path fill-opacity=".016" d="M0 128.004v128.004l128.25-.254 128.25-.254.254-127.75L257.008 0H0v128.004m.485.496c0 70.4.119 99.053.265 63.672.146-35.38.146-92.98 0-128C.604 29.153.485 58.1.485 128.5" fill="#1976D2" fill-rule="evenodd"/><path fill-opacity=".315" d="M57.809 11.536c-7.245 3.772-12.661 12.246-12.76 19.964-.145 11.41 10.579 22.524 21.886 22.68 19.267.266 30.341-22.546 17.85-36.772-7.164-8.159-18.038-10.526-26.976-5.872M29.268 62.937c-2.327 1.072-6.551 4.112-9.386 6.756-8.755 8.166-13.501 16.998-17.399 32.374C.356 110.46 0 114.132 0 127.709c0 16.494.441 18.453 4.954 22.009 2.565 2.022 6.931 1.488 9.591-1.173 2.402-2.401 2.455-2.799 2.455-18.461 0-18.068 1.951-29.214 6.714-38.363 2.43-4.668 2.76-4.956 3.112-2.721.805 5.103-.666 57.732-1.788 64-.641 3.575-2.019 14.6-3.063 24.5s-2.87 27.088-4.058 38.196c-1.189 11.107-1.858 21.402-1.488 22.878.37 1.475 1.966 3.975 3.545 5.554 2.414 2.414 3.688 2.872 7.984 2.872 6.129 0 9.764-2.091 11.704-6.733.763-1.828 2.268-11.523 3.343-21.545A8293.339 8293.339 0 0147.509 178c1.402-12.375 2.823-25.088 3.159-28.25.585-5.518.725-5.75 3.471-5.75 1.573 0 2.879.113 2.902.25.153.944 4.355 39.599 5.951 54.75 1.072 10.175 2.206 19.953 2.52 21.729.314 1.776.992 6.919 1.506 11.428.827 7.254 1.306 8.583 4.155 11.521 2.894 2.986 3.787 3.322 8.836 3.322 4.825 0 5.987-.388 8.24-2.75 4.119-4.317 4.784-7.185 3.702-15.952-.529-4.289-2.091-17.923-3.47-30.298a6426.15 6426.15 0 00-4.657-40.5c-2.22-18.591-3.826-72.191-2.134-71.234.445.252 4.635 2.737 9.31 5.522 7.843 4.672 21.531 11.437 35 17.298 3.025 1.316 5.741 2.718 6.035 3.115 1.204 1.624 7.693 3.583 10.965 3.31 1.925-.16 4.063-.341 4.75-.401.688-.061 2.15-1.01 3.25-2.11 2.264-2.264 2.752-8.848.8-10.8-.66-.66-.875-1.2-.478-1.2.784 0 17.927 6.491 21.178 8.019 6.96 3.271 7.344 3.218 9.369-1.298 3.698-8.248 3.701-8.229-1.779-10.587-2.729-1.174-5.259-2.134-5.624-2.134-.365 0-2.082-.641-3.815-1.425-9.009-4.074-29.205-11.613-30.439-11.363-1.625.33-5.461 9.654-4.748 11.538.34.899-.571.803-3.245-.343A200.787 200.787 0 00125 90.503c-9.535-3.565-32.722-16.874-42.496-24.391L76.508 61.5l-21.504-.257c-19.529-.232-21.893-.077-25.736 1.694M230.5 109.954c-12.259 2.934-20.431 14.845-17.978 26.204.988 4.573 3.809 9.899 6.644 12.544 7.702 7.184 22.966 7.184 30.668 0 8.177-7.628 8.471-26.023.522-32.78-5.849-4.973-13.902-7.393-19.856-5.968m-39.363 29.94c-1.151.729-1.151.95 0 1.417.75.305-.212.247-2.137-.129-1.925-.375-7.775-.669-13-.654-8.09.024-10.316.411-15 2.609-11.201 5.258-19.015 17.09-19.339 29.287l-.161 6.076 4.25.307c2.338.17 4.25.791 4.25 1.381 0 .679-1.648.886-4.5.565l-4.5-.507v5.254c0 3.256.527 5.692 1.384 6.404.842.699 1.358 2.998 1.319 5.872-.098 7.01 1.916 10.037 11.458 17.221l8.636 6.503-6.149.569c-7.395.685-10.127 2.028-12.698 6.245-3.498 5.737-1.918 13.511 3.464 17.038 2.19 1.435 6.173 1.644 30.801 1.615 31.284-.037 30.635.091 34.161-6.727 3.939-7.618 1.398-11.589-15.949-24.923-7.74-5.949-15.498-11.95-17.241-13.335l-3.168-2.518 4.241-5.087c2.333-2.798 9.711-10.345 16.396-16.772 14.447-13.888 15.86-16.341 15.451-26.82-.161-4.128-5.327-9.351-10.548-10.666-5.282-1.33-9.544-1.414-11.421-.225m4.57 3.602c7.095 3.263 7.218 12.609.202 15.414-1.812.725-1.964.979-.614 1.027.988.034 2.9-1.042 4.25-2.392 4.714-4.714 2.06-13.447-4.545-14.954-1.888-.431-1.715-.209.707.905M167.5 158.468c-2.369 1.194-2.474 1.356-.5.772 3.215-.952 16.324-.956 21.5-.006 3.366.617 3.604.561 1.5-.353-4.302-1.869-19.073-2.14-22.5-.413" fill="#1976D2" fill-rule="evenodd"/><path fill-opacity=".668" d="M63.58 9.871c-.296.479-1.88 1.139-3.52 1.467-4.254.851-10.655 7.036-12.628 12.2-2.096 5.489-1.582 13.602 1.207 19.052 4.102 8.018 15.273 12.72 24.624 10.365 13.781-3.47 20.718-20.372 13.223-32.219C83.538 16.077 76.954 11 73.859 11c-.958 0-2.019-.45-2.359-1-.759-1.228-7.176-1.333-7.92-.129m-36.763 55.03C19.826 69.334 17.204 71.928 12.561 79 4.59 91.142 1.074 104.48.306 125.48c-.51 13.972.478 19.659 3.958 22.77 2.685 2.4 7.973 2.251 10.272-.289 1.639-1.811 1.862-4.077 1.993-20.25.138-16.891.345-18.812 2.864-26.497C22.225 92.575 25.555 86 27.099 86c1.714 0 1.005 41.487-1.034 60.5-3.849 35.887-6.143 56.232-7.65 67.842-.846 6.513-1.623 14.939-1.726 18.723-.178 6.472-.005 7.066 2.904 9.982 3.868 3.877 9.655 4.911 14.235 2.542 6.038-3.122 5.421-.131 12.19-59.089 1.074-9.35 2.417-21.725 2.985-27.5 1.483-15.085 1.453-15 5.314-15h3.28l1.193 11.25c3.236 30.5 5.252 48.487 5.688 50.75.265 1.375 1.161 9.151 1.992 17.279.858 8.41 2.167 16.053 3.036 17.733 4.163 8.05 16.994 7.776 20.896-.447 1.644-3.463 1.653-4.575.164-18.873-.87-8.355-2.263-20.817-3.095-27.692-5.764-47.628-5.831-48.48-6.217-78.78l-.386-30.28 5.316 3.38c8.763 5.571 23.63 13.227 35.309 18.184 6.047 2.566 11.222 4.965 11.5 5.331 1.582 2.076 7.838 3.718 11.917 3.127 7.677-1.112 10.714-8.148 5.594-12.958-1.373-1.29-2.334-2.508-2.135-2.706.199-.199 4.359 1.271 9.246 3.266 4.887 1.995 11.135 4.438 13.885 5.429 2.75.991 5.765 2.112 6.7 2.492 1.306.531 2.066-.185 3.279-3.089 3.424-8.195 3.93-7.521-9.667-12.894a5031.066 5031.066 0 01-21.777-8.67c-5.205-2.091-9.832-3.435-10.282-2.985-.45.45-1.679 3.085-2.732 5.856l-1.915 5.039 2.197 1.061c1.383.668 1.641 1.083.697 1.12-2.461.096-23.562-9.465-34.404-15.589-10.118-5.715-16.932-10.159-23.74-15.484L76.212 62h-44.82l-4.575 2.901m200.942 46.522c-5.605 2-8.47 4.183-11.5 8.761-2.202 3.328-2.801 5.52-3.068 11.226-.303 6.472-.07 7.499 2.685 11.79 4.153 6.471 9.557 9.848 16.811 10.505 6.627.601 10.894-.784 16.205-5.262 9.655-8.141 9.46-25.062-.384-33.175-5.926-4.885-13.765-6.338-20.749-3.845m-34.607 28.25c-.831.344.2 1.253 2.683 2.365 4.157 1.861 7.165 6.064 7.165 10.012 0 2.719-6.141 8.95-8.819 8.95-1.111 0-4.859-.727-8.329-1.616-7.157-1.834-14.945-1.421-19.713 1.044-2.695 1.394-3.012 1.404-2.504.08.32-.833 3.083-2.242 6.139-3.131 4.8-1.395 6.524-1.444 12.642-.355 3.896.693 8.45 1.459 10.119 1.703 6.324.924 10.59-6.754 6.583-11.848-2.776-3.529-12.246-6.079-22.54-6.07-13.523.013-23.179 5.081-29.233 15.344-3.234 5.483-6.893 17.978-5.97 20.384.292.762 2.383 1.479 4.821 1.655 5.791.417 5.482 2.234-.446 2.615l-4.75.305v3.722c0 2.048.616 4.611 1.37 5.695.753 1.085 1.574 4.849 1.824 8.364.508 7.15 1.315 8.163 14.835 18.609l6.471 5-7.674.5c-6.34.413-8.121.921-10.251 2.926-5.182 4.876-5.181 13.276.002 18.148l2.581 2.426 27.383.295c23.27.251 27.838.06 30.405-1.267 3.612-1.868 6.056-6.202 6.049-10.728-.01-6.007-1.225-7.197-28.367-27.8-4.71-3.575-8.578-7.154-8.596-7.953-.018-.798 7.178-8.535 15.991-17.191 16.972-16.672 19.915-20.879 19.955-28.529.024-4.614-3.126-9.33-7.847-11.745-3.116-1.594-10.07-2.702-11.979-1.909" fill="#1976D2" fill-rule="evenodd"/><path fill-opacity=".965" d="M58.405 12.75c-5.094 2.91-5.966 3.629-8.194 6.75-3.125 4.377-4.444 11.498-3.178 17.148 3.717 16.586 24.369 22.121 36.164 9.694 9.037-9.522 7.11-25.386-3.934-32.39C75.325 11.455 73.597 11 68.039 11c-4.424 0-7.571.572-9.634 1.75M26.467 65.847C16.35 72.266 10.401 80.595 5.37 95.383c-1.288 3.786-2.607 9.861-2.932 13.5-.325 3.64-1.043 7.556-1.596 8.703-1.034 2.147-.618 13.692.84 23.312.623 4.111 1.445 5.865 3.448 7.356 3.26 2.427 8.047 1.664 9.747-1.552.73-1.38 1.272-9.11 1.452-20.702.266-17.071.496-19.099 2.975-26.257 2.676-7.725 6.468-14.707 8.002-14.731.444-.006.632 12.926.417 28.738-.348 25.717-2.476 54.313-5.19 69.75-.91 5.171-4.717 40.642-5.206 48.5-.451 7.243-.364 7.611 2.547 10.75 2.678 2.889 3.61 3.25 8.383 3.25 4.633 0 5.754-.402 8.18-2.935 3.209-3.349 3.125-2.764 12.081-84.065.818-7.425 1.697-14.062 1.953-14.75.256-.687 1.969-1.25 3.806-1.25h3.34l1.209 8.75c.664 4.813 1.885 15.5 2.711 23.75.827 8.25 1.723 16.125 1.993 17.5.269 1.375 1.38 11.209 2.469 21.854 1.089 10.644 2.445 21.083 3.015 23.196 1.449 5.383 5.065 7.95 11.198 7.95 4.129 0 5.423-.481 7.865-2.923 3.521-3.521 3.693-6.824 1.382-26.577-.836-7.15-2.405-21.1-3.487-31-1.081-9.9-2.685-23.4-3.564-30-1.913-14.37-3.203-70.5-1.62-70.5.554 0 3.946 1.785 7.538 3.967 9.03 5.486 23.459 12.837 34.174 17.409 4.95 2.113 9.675 4.414 10.5 5.114 2.308 1.959 6.06 2.853 10.967 2.614 4.937-.242 6.798-1.355 8.134-4.869.946-2.488-1.236-8.235-3.127-8.235-.536 0-.974-.499-.974-1.108 0-1.255 3.743-.538 8.5 1.628 7.005 3.19 21.786 8.551 22.718 8.241 1.26-.42 4.83-9.622 3.936-10.142-.736-.427-18.834-7.607-33.042-13.109-5.163-1.999-9.693-3.269-10.066-2.822-.373.446-1.509 2.734-2.524 5.084-1.803 4.175-1.802 4.303.065 5.668 4.488 3.282-.193 2.395-10.254-1.943-15.369-6.626-31.263-15.414-42.538-23.52L75.09 62l-21.295.01-21.295.009-6.033 3.828M225.5 112.515c-10.321 5.543-15.078 17.379-10.952 27.253 1.903 4.555 4.73 7.689 9.952 11.032 8.555 5.477 21.492 2.312 27.576-6.747 6.672-9.935 4.566-21.424-5.399-29.444-3.342-2.69-4.728-3.117-11-3.391-5.178-.226-8.012.135-10.177 1.297m-30 28.908c7.552 3.385 9.868 10.296 5.369 16.017-3.293 4.186-6.111 4.815-13.201 2.948-9.012-2.374-15.273-2.134-21.451.823-2.869 1.373-5.217 2.191-5.217 1.817 0-1.12 4.304-4.563 7.297-5.837 4.022-1.712 14.155-1.466 20.377.495 5.193 1.637 5.43 1.627 8.088-.349 3.698-2.75 4.267-8.3 1.148-11.206-4.846-4.515-24.938-6.149-34.581-2.812-10.448 3.615-18.195 13.677-20.469 26.584-1.265 7.185-.731 8.055 4.963 8.082 2.632.012 3.249.379 2.963 1.765-.286 1.387-1.233 1.694-4.573 1.482l-4.213-.268v4.327c0 2.38.653 5.2 1.451 6.268.949 1.27 1.258 3.193.892 5.563-.923 5.99 1.78 9.998 11.709 17.362 4.878 3.618 9.138 7.014 9.467 7.547.361.584-1.793.969-5.426.969-3.481 0-7.455.682-9.411 1.615-7.981 3.805-8.95 14.386-1.845 20.135 1.155.934 8.694 1.25 29.838 1.25h28.293l3.266-2.918c2.851-2.548 3.266-3.544 3.266-7.846 0-2.781-.617-5.672-1.416-6.635-.779-.938-8.997-7.584-18.262-14.768-9.265-7.184-17.066-13.418-17.335-13.854-.843-1.365 7.789-11.042 20.042-22.467 12.246-11.419 16.444-17.545 16.457-24.012.015-7.05-7.792-13.538-16.196-13.461l-4.29.039 3 1.345" fill="#1976D2" fill-rule="evenodd"/></svg>